HIERARCHY
ROOT ui
{
	 OFFSET 0 0 0
	 CHANNELS 3 XPosition YPosition Z Position
	 EndSite
	 {
	 OFFSET 0 -1 0
	 }
}
ROOT li
{
	 OFFSET 0 0 0
	 CHANNELS 3 XPosition YPosition Z Position
	 EndSite
	 {
	 OFFSET 0 -1 0
	 }
}
ROOT ul
{
	 OFFSET 0 0 0
	 CHANNELS 3 XPosition YPosition Z Position
	 EndSite
	 {
	 OFFSET 0 -1 0
	 }
}
ROOT ll
{
	 OFFSET 0 0 0
	 CHANNELS 3 XPosition YPosition Z Position
	 EndSite
	 {
	 OFFSET 0 -1 0
	 }
}
ROOT tt
{
	 OFFSET 0 0 0
	 CHANNELS 3 XPosition YPosition Z Position
	 EndSite
	 {
	 OFFSET 0 -1 0
	 }
}
ROOT tb
{
	 OFFSET 0 0 0
	 CHANNELS 3 XPosition YPosition Z Position
	 EndSite
	 {
	 OFFSET 0 -1 0
	 }
}
ROOT td
{
	 OFFSET 0 0 0
	 CHANNELS 3 XPosition YPosition Z Position
	 EndSite
	 {
	 OFFSET 0 -1 0
	 }
}
ROOT v
{
	 OFFSET 0 0 0
	 CHANNELS 3 XPosition YPosition Z Position
	 EndSite
	 {
	 OFFSET 0 -1 0
	 }
}
ROOT bn
{
	 OFFSET 0 0 0
	 CHANNELS 3 XPosition YPosition Z Position
	 EndSite
	 {
	 OFFSET 0 -1 0
	 }
}
MOTION
Frames: 32
Frame Time: 0.002
-0.03108906364440918	0.001002271056175232	0		0.6941304321289062	-2.769239013671875	0		-1.0107567749023438	0.3059222412109375	0		-0.23123318481445312	-3.335977294921875	0		1.7752880859375	-1.323179931640625	0		3.5623408203125	-0.8790375366210937	0		4.88984033203125	-0.661795654296875	0		5.9011015625	0.23437550354003905	0		-0.32246014404296874	5.90060986328125	0		
-0.031474607467651364	0.0011317859888076783	0		0.741644287109375	-2.780635986328125	0		-0.9371495971679688	0.30522027587890627	0		-0.20570179748535156	-3.346137939453125	0		1.7747142333984376	-1.341033203125	0		3.583028564453125	-0.87310986328125	0		4.89534912109375	-0.6716884155273437	0		5.892990234375	0.23663287353515625	0		-0.2888336181640625	5.9063583984375	0		
-0.03592708587646484	-0.0017033900022506714	0		0.6862666015625	-2.777900390625	0		-1.011566162109375	0.3061575622558594	0		-0.20027998352050783	-3.36208447265625	0		1.781224365234375	-1.3479798583984375	0		3.58952490234375	-0.8810460815429687	0		4.8921005859375	-0.65650732421875	0		5.89758056640625	0.21427713012695312	0		-0.34229498291015625	5.90606591796875	0		
0.04060600280761719	-0.00344759202003479	0		0.7216882934570312	-2.790186279296875	0		-0.9329896850585937	0.3083879699707031	0		-0.23369676208496093	-3.359607421875	0		1.79967626953125	-1.3570738525390624	0		3.584343505859375	-0.8568700561523438	0		4.8987841796875	-0.6444598999023438	0		5.898662109375	0.2092720947265625	0		-0.29358892822265625	5.921630859375	0		
-0.029788715362548828	0.0044324049949645995	0		0.6873707275390625	-2.7757060546875	0		-0.9983626708984376	0.31821173095703126	0		-0.2022179870605469	-3.36385986328125	0		1.8061109619140625	-1.3650472412109376	0		3.59064453125	-0.8768416748046876	0		4.90829638671875	-0.6454652709960937	0		5.896919921875	0.21468406677246094	0		-0.2950469665527344	5.92374462890625	0		
0.043665775299072264	-2.9452899098396303E-4	0		0.7446557006835938	-2.79525537109375	0		-0.9299185791015625	0.312541748046875	0		-0.19689730834960936	-3.379830322265625	0		1.805612548828125	-1.364954833984375	0		3.6053125	-0.8619192504882812	0		4.8960107421875	-0.6262449951171875	0		5.89951318359375	0.23551596069335937	0		-0.2756142578125	5.9166181640625	0		
-0.03382991790771484	0.0016486740112304687	0		0.679250732421875	-2.7844482421875	0		-0.9304291381835937	0.3126322631835938	0		-0.1705209197998047	-3.38904150390625	0		1.8138516845703125	-1.3869713134765624	0		3.580677490234375	-0.8725752563476562	0		4.9054853515625	-0.627283447265625	0		5.8955107421875	0.2201632537841797	0		-0.31114996337890627	5.913095703125	0		
0.03555354309082031	-0.00704825210571289	0		0.687591796875	-2.795469970703125	0		-1.0089795532226562	0.3105846252441406	0		-0.21424610900878907	-3.40548095703125	0		1.83223193359375	-1.3951097412109374	0		3.574239501953125	-0.86444482421875	0		4.90210400390625	-0.6141926879882813	0		5.89582666015625	0.2150469207763672	0		-0.3116460876464844	5.913177734375	0		
-0.034885597229003903	0.0018039970397949218	0		0.6808760986328125	-2.810332275390625	0		-1.000421630859375	0.31856436157226564	0		-0.14100382995605468	-3.4242275390625	0		1.8575003662109375	-1.412334716796875	0		3.586523193359375	-0.8805357055664063	0		4.90156787109375	-0.61414794921875	0		5.89320361328125	0.192682861328125	0		-0.296054931640625	5.92107568359375	0		
0.04459231185913086	0.002982393980026245	0		0.699426025390625	-2.800480712890625	0		-0.996925537109375	0.3215958251953125	0		-0.2034645233154297	-3.414468017578125	0		1.8271304931640624	-1.3959466552734374	0		3.60033251953125	-0.8486512451171875	0		4.8953583984375	-0.5840504760742188	0		5.8859716796875	0.2551949462890625	0		-0.27759628295898436	5.91693505859375	0		
-0.03596988296508789	0.0019376300573349	0		0.6958120727539062	-2.804388916015625	0		-0.9275165405273438	0.3168893127441406	0		-0.15809805297851562	-3.4199140625	0		1.87141455078125	-1.41039892578125	0		3.563648681640625	-0.8602168579101562	0		4.89684130859375	-0.5810517578125	0		5.88193701171875	0.23801361083984374	0		-0.3131314697265625	5.91339208984375	0		
0.03643121719360352	-0.0028153710365295412	0		0.692188720703125	-2.808302001953125	0		-1.0020472412109376	0.318784423828125	0		-0.15183995056152344	-3.433929443359375	0		1.83779638671875	-1.41498974609375	0		3.560235107421875	-0.847160888671875	0		4.893453125	-0.566009765625	0		5.88938916015625	0.23779966735839844	0		-0.29467666625976563	5.908244140625	0		
-0.041107383728027344	-8.994399905204773E-4	0		0.6875441284179687	-2.813208740234375	0		-0.9286136474609376	0.31702761840820315	0		-0.15448118591308593	-3.437847900390625	0		1.8540894775390624	-1.4271444091796874	0		3.56755810546875	-0.8572363891601562	0		4.88289208984375	-0.5659013671875	0		5.88114794921875	0.23798490905761718	0		-0.3292235107421875	5.9026845703125	0		
0.03531760025024414	-0.002705451011657715	0		0.69684326171875	-2.82227587890625	0		-0.9991190185546875	0.321877197265625	0		-0.21697422790527343	-3.427099365234375	0		1.8853848876953125	-1.4384742431640625	0		3.56225537109375	-0.8331795654296875	0		4.8835595703125	-0.544930419921875	0		5.88563623046875	0.215306884765625	0		-0.3145751953125	5.9135751953125	0		
-0.03516244888305664	0.00512914514541626	0		0.6982553100585938	-2.820258056640625	0		-0.9256809692382812	0.32111767578125	0		-0.14280084228515624	-3.445882080078125	0		1.901864013671875	-1.4326446533203125	0		3.552421630859375	-0.8560853271484375	0		4.8770888671875	-0.5358939819335937	0		5.88887939453125	0.2324270477294922	0		-0.33016064453125	5.90280078125	0		
0.03822270584106445	3.512760102748871E-4	0		0.6945907592773437	-2.8241865234375	0		-1.0002355346679688	0.322016357421875	0		-0.15634225463867188	-3.43768310546875	0		1.9081807861328124	-1.440708251953125	0		3.5670068359375	-0.8412720336914062	0		4.8706142578125	-0.526870361328125	0		5.89562255859375	0.2355836944580078	0		-0.2965469970703125	5.9084765625	0		
-0.043361709594726565	-6.887400150299072E-4	0		0.7418468017578125	-2.834689697265625	0		-0.930844970703125	0.31730252075195314	0		-0.11818888092041016	-3.456066162109375	0		1.92747998046875	-1.44992333984375	0		3.5363896484375	-0.8439617919921875	0		4.86820458984375	-0.5119042663574219	0		5.88737939453125	0.23739195251464842	0		-0.33203936767578124	5.90392724609375	0		
0.03305475616455078	-0.002503959894180298	0		0.688248046875	-2.831060546875	0		-0.9314046630859375	0.31737567138671874	0		-0.14093972778320313	-3.464764404296875	0		1.9437301025390625	-1.46310986328125	0		3.529892333984375	-0.8359295654296875	0		4.8617265625	-0.502904296875	0		5.88697314453125	0.23723249816894532	0		-0.3314753723144531	5.902974609375	0		
0.03248797607421875	-0.0024535839557647703	0		0.6975045166015625	-2.8401396484375	0		-0.9279181518554688	0.3214060668945313	0		-0.14057522583007812	-3.462720703125	0		1.9749986572265625	-1.4744703369140626	0		3.541111083984375	-0.8531056518554687	0		4.8442265625	-0.49578973388671876	0		5.87872119140625	0.23726663208007812	0		-0.31577471923828127	5.912853515625	0		
-0.037995925903320314	0.005389784812927246	0		0.7019359130859375	-2.83316357421875	0		-1.0024718627929687	0.3223221740722656	0		-0.1392290344238281	-3.461686767578125	0		1.980468505859375	-1.46754150390625	0		3.533938720703125	-0.8160758056640625	0		4.84591650390625	-0.4718975219726563	0		5.89399658203125	0.23491018676757813	0		-0.2972335510253906	5.90770068359375	0		
0.0353817138671875	6.069539785385132E-4	0		0.7102453002929687	-2.83623095703125	0		-0.943970458984375	0.32773733520507814	0		-0.14597128295898437	-3.46755908203125	0		1.9768076171875	-1.4715103759765624	0		3.506162353515625	-0.831817626953125	0		4.83452392578125	-0.4548616943359375	0		5.89358544921875	0.23470346069335937	0		-0.2986201171875	5.90877587890625	0		
-0.04218379211425781	0.00253985595703125	0		0.6805674438476562	-2.836864501953125	0		-0.9395995483398437	0.322767822265625	0		-0.08577661895751953	-3.478189453125	0		1.981055419921875	-1.482568603515625	0		3.49660107421875	-0.82776416015625	0		4.824962890625	-0.4518487243652344	0		5.8858828125	0.2018208770751953	0		-0.30001034545898436	5.9098544921875	0		
0.030170644760131836	-0.002229785919189453	0		0.6877577514648437	-2.847914794921875	0		-0.9542180786132812	0.32001834106445315	0		-0.15141908264160156	-3.472384521484375	0		1.9722889404296875	-1.49347705078125	0		3.49292333984375	-0.8327772827148437	0		4.81153662109375	-0.43579055786132814	0		5.8812568359375	0.2190257110595703	0		-0.31936309814453123	5.9151416015625	0		
-0.047424320220947266	-2.8581500053405763E-4	0		0.6709774780273438	-2.854688720703125	0		-0.9507738647460937	0.32406680297851564	0		-0.09337263488769532	-3.49298876953125	0		1.9716304931640625	-1.4934749755859376	0		3.478595458984375	-0.8056648559570313	0		4.798083984375	-0.42073037719726564	0		5.8886630859375	0.21859725952148437	0		-0.3387408142089844	5.91943310546875	0		
0.03296481704711914	8.538780212402344E-4	0		0.686338134765625	-2.84782666015625	0		-0.9463465576171874	0.3281064758300781	0		-0.13693647766113282	-3.47742626953125	0		1.970954833984375	-1.493469970703125	0		3.468689697265625	-0.8276027221679687	0		4.78663818359375	-0.40368951416015625	0		5.89185205078125	0.2338606719970703	0		-0.2710607604980469	5.92973046875	0		
-0.04869742202758789	-1.453939974308014E-4	0		0.682547607421875	-2.852742919921875	0		-0.9720137939453125	0.3254937744140625	0		-0.06491262817382812	-3.497190185546875	0		1.9682293701171876	-1.4964378662109374	0		3.4642841796875	-0.8045960083007813	0		4.7751884765625	-0.3856429748535156	0		5.8828642578125	0.2408218994140625	0		-0.2856349182128906	5.919970703125	0		
0.027628091812133788	-0.0019585750102996827	0		0.7037210693359375	-2.85994384765625	0		-0.9726617431640625	0.3255963134765625	0		-0.1296261444091797	-3.49237744140625	0		1.96244580078125	-1.503366455078125	0		3.443510986328125	-0.8123968505859375	0		4.7586240234375	-0.3765308532714844	0		5.878744140625	0.2234395446777344	0		-0.30222747802734373	5.91023779296875	0		
-0.05002105331420898	6.6639999859035016E-6	0		0.67598486328125	-2.858576171875	0		-0.9773639526367187	0.3217474060058594	0		-0.0705023193359375	-3.501990478515625	0		1.9666083984375	-1.5144049072265624	0		3.430810546875	-0.8132828979492187	0		4.75305126953125	-0.3675370178222656	0		5.88191552734375	0.24047105407714844	0		-0.36985430908203126	5.89909765625	0		
0.03033079147338867	0.0011486890316009522	0		0.6950175170898437	-2.877746337890625	0		-0.9739747924804687	0.3258074340820313	0		-0.1162283706665039	-3.498387939453125	0		1.97279541015625	-1.5234610595703124	0		3.41210009765625	-0.8150908203125	0		4.7236552734375	-0.3432562255859375	0		5.88632373046875	0.2176939392089844	0		-0.3353112182617187	5.90278173828125	0		
-0.04427334976196289	0.006089762210845947	0		0.698333251953125	-2.873728271484375	0		-0.9746219482421875	0.3259154968261719	0		-0.054048839569091796	-3.505033447265625	0		1.98204150390625	-1.52854541015625	0		3.414771484375	-0.7851336059570313	0		4.7211533203125	-0.3292739562988281	0		5.884609375	0.2556691131591797	0		-0.32068667602539064	5.9136982421875	0		
0.029042455673217775	0.0013159250020980835	0		0.6806467895507813	-2.8724609375	0		-0.97929345703125	0.32207083129882813	0		-0.13058305358886718	-3.48906298828125	0		1.9763038330078124	-1.53444677734375	0		3.363995849609375	-0.795544189453125	0		4.69767724609375	-0.3150306091308594	0		5.88037451171875	0.21070504760742187	0		-0.17097164916992189	5.931044921875	0		
0.02441122817993164	-0.0015496710538864136	0		0.71180517578125	-2.888758056640625	0		-0.9438861083984375	0.32175857543945313	0		-0.06050933074951172	-3.51179833984375	0		1.9685494384765625	-1.5453150634765624	0		3.365360107421875	-0.7975452270507812	0		4.6862734375	-0.2979075927734375	0		5.879947265625	0.21065730285644532	0		-0.3037109375	5.90967626953125	0		
